# MediaPipe face landmarks as mesh; x right, y down (image), z toward camera negative
v 513.347 -384.010 60.014
v 527.968 -312.104 83.674
v 516.864 -338.431 50.648
v 507.154 -267.108 56.431
v 528.938 -295.796 85.761
v 525.516 -278.307 75.209
v 513.528 -238.176 21.542
v 387.572 -242.402 -7.215
v 509.837 -205.438 2.085
v 510.482 -185.797 -0.605
v 504.211 -121.484 -39.243
v 512.959 -389.606 59.491
v 511.657 -394.998 55.451
v 509.875 -399.268 49.379
v 511.255 -399.356 48.007
v 511.570 -403.758 51.726
v 511.754 -409.853 57.026
v 511.030 -417.008 58.046
v 510.342 -445.019 48.088
v 524.514 -323.819 77.491
v 506.607 -327.809 61.015
v 300.413 -195.907 -79.776
v 431.160 -251.880 -0.872
v 416.197 -253.999 2.785
v 400.074 -254.974 2.541
v 377.089 -249.620 -5.770
v 443.380 -248.373 -7.245
v 409.177 -207.897 3.286
v 428.117 -209.172 -2.978
v 391.121 -211.825 3.400
v 378.361 -219.369 0.495
v 360.881 -261.181 -8.341
v 441.527 -479.419 53.333
v 381.031 -239.231 -11.135
v 291.707 -264.387 -64.485
v 337.419 -253.724 -21.695
v 426.330 -316.346 31.302
v 495.106 -380.390 62.974
v 494.253 -394.691 58.127
v 474.179 -387.618 60.910
v 458.016 -395.310 55.432
v 477.229 -397.225 57.013
v 462.341 -401.014 50.969
v 429.135 -422.196 44.677
v 514.428 -312.025 85.267
v 513.024 -296.371 87.318
v 357.438 -211.654 -1.814
v 458.580 -275.567 16.250
v 466.574 -317.187 56.985
v 463.752 -310.304 51.100
v 370.062 -319.287 25.565
v 510.493 -280.161 75.052
v 403.921 -191.688 10.013
v 378.192 -198.497 5.783
v 328.360 -164.245 -61.861
v 477.077 -201.948 6.002
v 443.576 -216.390 -10.822
v 416.240 -407.752 41.691
v 285.754 -430.546 -65.466
v 477.790 -326.747 49.153
v 491.301 -332.166 48.709
v 435.917 -408.494 39.777
v 439.724 -407.440 41.153
v 366.906 -189.568 -3.101
v 463.478 -327.296 50.090
v 435.795 -191.999 9.629
v 434.016 -177.733 9.710
v 410.484 -125.137 -30.979
v 348.531 -175.837 -28.919
v 424.425 -149.796 -10.585
v 343.614 -207.198 -14.640
v 322.497 -201.442 -46.342
v 494.803 -388.129 62.613
v 476.265 -392.773 60.059
v 460.579 -397.903 54.612
v 481.123 -331.083 45.648
v 437.937 -407.938 40.305
v 447.829 -407.718 47.877
v 441.947 -407.045 41.118
v 489.667 -316.214 68.289
v 463.356 -402.936 48.204
v 477.970 -399.955 51.151
v 493.846 -398.849 52.444
v 488.328 -444.389 52.212
v 492.024 -415.945 61.975
v 493.062 -408.554 61.052
v 493.811 -403.170 55.075
v 494.643 -398.501 51.114
v 463.698 -401.853 47.558
v 461.651 -404.313 51.221
v 459.539 -407.782 55.641
v 457.486 -412.054 55.620
v 442.312 -374.601 49.868
v 267.958 -346.593 -104.671
v 520.417 -331.964 59.453
v 451.812 -404.639 44.161
v 450.371 -406.280 46.567
v 495.616 -338.900 51.837
v 467.659 -338.998 39.370
v 493.681 -335.817 50.204
v 440.341 -286.307 18.378
v 413.259 -297.763 23.006
v 458.955 -319.919 44.573
v 363.962 -140.025 -43.355
v 381.725 -158.425 -17.642
v 397.004 -179.021 4.483
v 445.196 -430.859 50.863
v 473.150 -181.728 7.727
v 465.301 -149.520 -11.043
v 455.808 -120.001 -29.651
v 386.004 -253.888 -1.020
v 340.415 -273.789 -10.327
v 451.912 -244.361 -12.352
v 360.085 -230.639 -7.251
v 471.399 -264.305 16.956
v 479.826 -307.223 67.947
v 315.772 -288.189 -17.949
v 356.300 -281.857 4.031
v 381.969 -284.425 13.471
v 415.400 -279.938 12.349
v 438.303 -272.404 8.060
v 455.566 -264.498 5.423
v 497.474 -241.975 20.966
v 317.368 -321.735 -5.543
v 344.980 -231.102 -12.154
v 517.141 -323.148 78.993
v 462.742 -289.650 25.906
v 272.096 -270.833 -113.363
v 469.324 -255.334 1.915
v 454.943 -323.012 29.665
v 369.196 -241.023 -11.761
v 477.243 -299.295 60.191
v 271.822 -387.674 -88.724
v 450.793 -239.721 -17.437
v 494.039 -287.474 70.459
v 346.246 -455.806 9.720
v 337.032 -482.843 -10.669
v 285.369 -334.991 -53.755
v 319.077 -436.606 -7.981
v 305.689 -230.487 -60.317
v 434.037 -501.515 51.076
v 514.951 -331.344 59.719
v 447.023 -303.484 26.315
v 318.386 -258.994 -32.523
v 403.416 -245.108 -1.449
v 416.169 -244.844 -0.908
v 445.473 -410.744 47.320
v 316.623 -356.246 -3.082
v 466.180 -527.622 45.144
v 400.606 -511.654 23.723
v 370.843 -500.416 8.850
v 507.814 -152.359 -19.590
v 505.005 -528.846 40.807
v 428.052 -243.308 -4.290
v 438.592 -241.627 -9.840
v 446.486 -240.879 -15.531
v 328.329 -230.841 -25.696
v 437.967 -228.040 -10.533
v 426.125 -222.738 -5.116
v 414.050 -221.889 -2.046
v 400.958 -224.973 -1.364
v 391.942 -229.820 -3.489
v 282.876 -229.776 -100.519
v 394.387 -244.052 -4.084
v 514.921 -353.752 50.329
v 460.682 -363.177 51.075
v 479.233 -322.066 53.407
v 494.486 -354.384 55.480
v 509.615 -223.343 5.558
v 374.027 -474.747 23.459
v 402.254 -488.859 36.915
v 470.468 -508.818 60.583
v 309.349 -461.966 -37.804
v 446.629 -235.142 -14.600
v 489.017 -264.460 34.655
v 509.319 -510.896 55.629
v 432.414 -520.827 38.691
v 287.397 -372.922 -43.829
v 478.514 -399.609 50.113
v 476.665 -402.876 54.473
v 475.084 -407.693 59.793
v 473.629 -414.261 60.698
v 464.992 -438.812 54.826
v 449.587 -404.594 45.980
v 447.352 -403.712 47.393
v 444.891 -402.490 48.093
v 427.042 -389.831 46.305
v 349.428 -358.739 21.664
v 484.501 -251.947 17.458
v 467.999 -227.046 -14.686
v 455.201 -229.166 -15.610
v 451.771 -405.473 44.263
v 338.253 -404.336 10.585
v 488.519 -225.202 1.388
v 452.062 -459.036 52.823
v 521.454 -264.559 56.782
v 502.454 -254.915 39.156
v 517.415 -251.824 38.205
v 478.171 -288.817 42.398
v 510.859 -488.937 59.368
v 510.779 -465.537 53.500
v 482.353 -464.425 56.810
v 407.959 -432.455 41.288
v 439.337 -337.604 32.777
v 427.578 -448.858 47.414
v 397.807 -337.005 36.505
v 422.679 -354.756 39.343
v 378.031 -367.100 34.643
v 475.781 -487.367 63.068
v 465.331 -300.202 36.333
v 386.803 -449.734 34.063
v 413.543 -466.630 42.438
v 394.611 -412.188 38.747
v 317.772 -386.608 -2.754
v 365.571 -419.136 28.420
v 296.179 -407.647 -30.023
v 406.016 -378.796 40.896
v 475.990 -276.742 29.803
v 485.332 -313.067 71.243
v 471.947 -321.416 57.864
v 496.367 -300.378 78.728
v 457.172 -213.001 -8.937
v 431.646 -202.989 -0.330
v 407.858 -201.437 5.923
v 386.821 -205.930 6.354
v 370.313 -215.789 1.644
v 355.640 -247.104 -14.875
v 286.328 -298.990 -58.630
v 372.482 -265.715 -1.373
v 391.605 -268.010 4.343
v 414.441 -266.166 5.509
v 434.521 -261.719 1.736
v 449.602 -256.110 -3.626
v 460.712 -250.904 -6.828
v 269.201 -308.679 -114.079
v 470.752 -328.354 50.918
v 492.988 -275.834 50.351
v 501.323 -311.289 80.245
v 508.120 -322.065 73.723
v 499.302 -315.938 73.462
v 474.163 -335.104 45.489
v 511.766 -322.589 77.324
v 510.213 -329.831 60.268
v 457.737 -239.672 -17.324
v 469.763 -242.079 -10.553
v 479.454 -243.229 0.150
v 386.187 -234.362 -6.507
v 369.957 -229.582 -5.351
v 532.745 -267.941 47.211
v 593.771 -248.647 -73.297
v 531.130 -329.387 53.873
v 630.884 -212.514 -180.153
v 557.651 -256.052 -43.457
v 571.205 -259.100 -48.409
v 584.069 -260.588 -56.542
v 598.121 -256.294 -75.548
v 545.543 -251.396 -41.107
v 584.936 -213.722 -50.068
v 567.288 -213.684 -45.222
v 598.868 -218.894 -58.222
v 606.251 -226.962 -66.152
v 608.201 -268.533 -83.703
v 562.853 -478.774 21.636
v 597.796 -245.411 -80.235
v 634.926 -276.873 -168.330
v 621.292 -261.666 -106.663
v 576.353 -321.030 -11.840
v 529.580 -381.044 51.937
v 525.462 -395.371 48.224
v 543.494 -388.214 37.970
v 553.069 -396.588 23.634
v 536.606 -398.379 37.360
v 546.046 -401.759 24.412
v 570.365 -424.039 3.372
v 538.772 -313.098 79.236
v 541.727 -297.846 80.228
v 623.054 -220.257 -81.090
v 546.881 -278.956 -11.654
v 558.319 -319.720 30.308
v 557.358 -312.942 23.690
v 613.088 -326.666 -45.828
v 537.354 -280.935 65.829
v 598.724 -198.348 -45.392
v 614.841 -206.812 -63.082
v 624.077 -180.822 -151.712
v 539.161 -202.697 -12.521
v 550.532 -219.216 -45.246
v 581.371 -410.092 -8.785
v 618.074 -435.638 -160.214
v 546.214 -328.559 30.064
v 535.776 -333.238 39.109
v 561.796 -411.747 -3.743
v 558.562 -410.116 3.134
v 620.952 -198.709 -76.264
v 555.491 -329.094 24.028
v 574.473 -196.121 -28.273
v 578.902 -182.628 -29.480
v 580.784 -136.545 -82.829
v 622.677 -189.339 -109.499
v 578.935 -158.590 -55.646
v 628.605 -216.176 -99.341
v 630.306 -214.987 -138.152
v 528.168 -389.086 51.698
v 540.213 -393.741 38.664
v 549.757 -399.369 25.741
v 542.034 -332.116 29.540
v 560.626 -410.863 0.258
v 554.999 -410.747 14.478
v 557.089 -409.465 4.192
v 546.473 -318.829 50.038
v 542.648 -403.539 23.019
v 533.732 -400.869 32.635
v 522.824 -399.628 42.186
v 529.058 -444.035 42.369
v 526.975 -416.752 51.644
v 527.150 -409.711 50.481
v 526.353 -403.998 44.634
v 524.299 -399.923 41.321
v 543.919 -403.724 22.438
v 546.374 -406.471 26.211
v 548.392 -410.419 29.604
v 550.245 -414.554 27.102
v 569.663 -376.869 12.820
v 626.015 -358.057 -210.277
v 550.447 -406.493 11.972
v 552.451 -408.695 14.506
v 533.370 -339.672 42.123
v 547.935 -339.954 18.520
v 534.514 -336.919 40.877
v 560.371 -290.451 -19.058
v 582.799 -303.583 -27.723
v 557.558 -322.078 16.347
v 608.336 -155.091 -116.759
v 606.371 -170.210 -82.711
v 604.405 -186.751 -54.097
v 560.025 -431.601 17.243
v 546.468 -183.265 -12.448
v 546.693 -154.483 -34.676
v 547.207 -126.298 -55.907
v 593.254 -259.836 -66.598
v 620.094 -282.291 -94.392
v 538.076 -246.686 -42.381
v 614.735 -238.463 -83.926
v 538.276 -266.892 -5.350
v 555.022 -310.207 46.307
v 634.233 -298.812 -112.761
v 614.703 -290.312 -74.970
v 601.058 -292.577 -53.557
v 576.581 -286.064 -38.850
v 557.385 -277.010 -30.777
v 543.251 -267.709 -23.509
v 525.615 -243.014 11.352
v 634.696 -331.065 -100.608
v 622.758 -239.806 -95.939
v 530.189 -323.828 74.226
v 548.603 -292.372 -1.160
v 628.988 -284.615 -221.898
v 533.745 -257.755 -20.680
v 556.045 -325.244 1.238
v 604.495 -248.151 -84.581
v 552.693 -301.809 38.333
v 623.922 -396.658 -189.904
v 536.384 -241.587 -48.918
v 546.111 -289.340 54.448
v 611.900 -457.352 -61.868
v 603.509 -482.355 -83.278
v 637.415 -344.931 -157.602
v 621.769 -439.853 -91.708
v 632.393 -243.960 -158.816
v 566.851 -500.254 16.711
v 525.034 -331.812 56.852
v 559.367 -306.806 -7.123
v 628.251 -267.602 -125.453
v 582.563 -250.440 -59.479
v 572.215 -249.620 -52.344
v 556.783 -413.486 11.305
v 632.199 -364.121 -94.589
v 538.281 -526.322 26.562
v 576.760 -509.848 -23.257
v 590.459 -498.618 -50.266
v 560.089 -247.523 -48.080
v 548.680 -244.912 -47.531
v 540.713 -243.115 -49.356
v 628.927 -240.661 -115.793
v 550.668 -232.049 -48.784
v 563.627 -228.037 -49.671
v 576.307 -227.427 -53.823
v 586.638 -230.688 -60.513
v 592.923 -236.141 -66.995
v 631.795 -245.142 -206.502
v 589.352 -249.989 -67.102
v 557.259 -364.792 23.046
v 548.149 -324.438 34.705
v 534.262 -355.448 43.993
v 598.130 -474.293 -34.739
v 583.450 -487.791 -9.218
v 542.280 -508.130 41.939
v 611.055 -463.984 -122.077
v 541.301 -237.387 -48.960
v 536.267 -266.325 19.503
v 560.742 -519.046 3.848
v 634.287 -381.285 -143.020
v 535.575 -401.103 31.947
v 537.719 -404.951 35.509
v 539.582 -409.968 39.755
v 540.444 -415.817 39.373
v 547.002 -439.163 31.140
v 553.335 -406.553 12.795
v 556.165 -405.656 10.767
v 558.972 -404.761 8.742
v 578.171 -392.875 -0.295
v 620.958 -365.460 -55.484
v 531.649 -253.744 1.894
v 530.648 -228.202 -34.569
v 536.799 -230.906 -44.761
v 549.553 -406.486 12.234
v 620.680 -409.467 -68.075
v 522.997 -225.944 -10.716
v 554.483 -458.696 25.883
v 529.584 -256.024 30.980
v 545.642 -290.752 22.246
v 534.181 -464.400 43.826
v 584.551 -433.907 -6.989
v 567.139 -340.393 -2.642
v 570.738 -448.674 9.569
v 597.788 -342.694 -19.296
v 581.172 -358.436 -5.372
v 607.903 -372.328 -29.494
v 540.562 -486.951 45.672
v 550.641 -302.603 11.341
v 595.752 -450.611 -21.193
v 579.789 -466.162 0.003
v 595.262 -414.753 -19.191
v 628.829 -393.027 -90.321
v 610.151 -422.224 -38.110
v 629.816 -413.623 -124.397
v 591.298 -382.874 -11.971
v 541.862 -278.866 8.280
v 550.932 -315.801 51.528
v 554.214 -324.002 35.292
v 549.606 -302.464 63.663
v 544.368 -214.628 -36.210
v 570.117 -207.183 -40.510
v 590.964 -208.181 -47.267
v 606.220 -214.114 -58.062
v 614.103 -223.973 -70.525
v 611.733 -254.659 -92.480
v 637.416 -310.749 -164.981
v 602.857 -273.264 -72.226
v 591.069 -274.774 -57.330
v 574.094 -271.793 -45.335
v 556.661 -265.944 -38.450
v 543.388 -259.255 -34.121
v 534.172 -253.220 -31.744
v 626.356 -321.498 -222.419
v 551.150 -330.043 28.925
v 540.297 -277.258 34.604
v 545.629 -313.025 67.767
v 534.650 -323.456 66.438
v 542.262 -318.214 60.705
v 545.619 -336.180 27.012
v 533.471 -323.664 71.524
v 528.740 -331.190 55.386
v 532.391 -241.174 -43.663
v 527.735 -243.570 -30.145
v 526.629 -244.993 -15.872
v 595.897 -240.939 -72.957
v 608.666 -237.094 -75.975
f 174 156 134
f 247 34 8
f 383 399 363
f 264 467 250
f 309 416 325
f 79 96 192
f 357 390 265
f 128 35 163
f 369 265 390
f 140 163 35
f 268 1 303
f 38 73 1
f 12 303 1
f 12 1 73
f 350 452 351
f 121 122 232
f 453 351 452
f 233 232 122
f 268 303 270
f 38 40 73
f 304 270 303
f 74 73 40
f 358 344 351
f 129 122 115
f 278 351 344
f 48 115 122
f 351 453 358
f 122 129 233
f 454 358 453
f 234 233 129
f 300 334 298
f 70 68 105
f 333 298 334
f 104 105 68
f 176 153 397
f 176 172 153
f 378 397 153
f 149 153 172
f 382 385 383
f 155 156 158
f 399 383 385
f 174 158 156
f 281 348 331
f 51 102 119
f 349 331 348
f 120 119 102
f 270 304 271
f 40 41 74
f 305 271 304
f 75 74 41
f 10 337 152
f 10 152 108
f 338 152 337
f 109 108 152
f 345 279 361
f 116 132 49
f 280 361 279
f 50 49 132
f 263 432 419
f 33 195 212
f 425 419 432
f 205 212 195
f 305 409 271
f 75 41 185
f 410 271 409
f 186 185 41
f 273 311 408
f 43 184 81
f 416 408 311
f 192 81 184
f 323 271 411
f 93 187 41
f 410 411 271
f 186 41 187
f 348 450 349
f 119 120 230
f 451 349 450
f 231 230 120
f 435 433 431
f 215 211 213
f 423 431 433
f 203 213 211
f 314 315 19
f 84 19 85
f 18 19 315
f 18 85 19
f 308 376 307
f 78 77 147
f 292 307 376
f 62 147 77
f 260 388 261
f 30 31 161
f 389 261 388
f 162 161 31
f 287 415 385
f 57 158 191
f 399 385 415
f 174 191 158
f 419 425 407
f 195 183 205
f 336 407 425
f 107 205 183
f 368 417 365
f 139 136 193
f 435 365 417
f 215 193 136
f 392 424 328
f 166 99 204
f 359 328 424
f 130 204 99
f 299 302 285
f 69 55 72
f 252 285 302
f 22 72 55
f 5 276 6
f 5 6 46
f 282 6 276
f 52 46 6
f 255 374 254
f 25 24 145
f 375 254 374
f 146 145 24
f 321 322 308
f 91 78 92
f 376 308 322
f 147 92 78
f 281 426 412
f 51 188 206
f 428 412 426
f 208 206 188
f 422 314 201
f 202 201 84
f 19 201 314
f 19 84 201
f 336 322 407
f 107 183 92
f 406 407 322
f 182 92 183
f 406 322 405
f 182 181 92
f 321 405 322
f 91 92 181
f 18 315 17
f 18 17 85
f 316 17 315
f 86 85 17
f 426 267 427
f 206 207 37
f 424 427 267
f 204 37 207
f 370 397 401
f 141 177 172
f 378 401 397
f 149 172 177
f 392 270 323
f 166 93 40
f 271 323 270
f 41 40 93
f 418 466 414
f 194 190 246
f 465 414 466
f 245 246 190
f 258 259 387
f 28 160 29
f 386 387 259
f 159 29 160
f 261 389 468
f 31 248 162
f 467 468 389
f 247 162 248
f 249 457 420
f 4 197 237
f 400 420 457
f 175 237 197
f 334 299 333
f 105 104 69
f 285 333 299
f 55 69 104
f 286 9 418
f 56 194 9
f 169 418 9
f 169 9 194
f 341 262 347
f 112 118 32
f 449 347 262
f 229 32 118
f 286 418 442
f 56 222 194
f 414 442 418
f 190 194 222
f 328 461 327
f 99 98 241
f 329 327 461
f 100 241 98
f 278 356 330
f 48 101 127
f 372 330 356
f 143 127 101
f 310 393 439
f 80 219 167
f 440 439 393
f 220 167 219
f 382 383 257
f 155 27 156
f 342 257 383
f 113 156 27
f 361 280 421
f 132 199 50
f 430 421 280
f 210 50 199
f 366 365 380
f 137 151 136
f 395 380 365
f 170 136 151
f 356 278 438
f 127 218 48
f 344 438 278
f 115 48 218
f 444 445 283
f 224 53 225
f 284 283 445
f 54 225 53
f 282 276 364
f 52 135 46
f 441 364 276
f 221 46 135
f 432 263 396
f 212 171 33
f 370 396 263
f 141 33 171
f 338 300 339
f 109 110 70
f 298 339 300
f 68 70 110
f 336 274 322
f 107 92 44
f 376 322 274
f 147 44 92
f 349 451 350
f 120 121 231
f 452 350 451
f 232 231 121
f 468 360 343
f 248 114 131
f 447 343 360
f 227 131 114
f 283 284 335
f 53 106 54
f 294 335 284
f 64 54 106
f 251 459 463
f 21 243 239
f 462 463 459
f 242 239 243
f 277 354 301
f 47 71 125
f 384 301 354
f 157 125 71
f 326 293 325
f 97 96 63
f 309 325 293
f 79 63 96
f 284 277 294
f 54 64 47
f 301 294 277
f 71 47 64
f 448 265 346
f 228 117 35
f 373 346 265
f 144 35 117
f 353 346 347
f 124 118 117
f 341 347 346
f 112 117 118
f 2 20 275
f 2 45 20
f 355 275 20
f 126 20 45
f 249 282 457
f 4 237 52
f 364 457 282
f 135 52 237
f 426 427 428
f 206 208 207
f 437 428 427
f 217 207 208
f 381 382 253
f 154 23 155
f 257 253 382
f 27 155 23
f 392 394 270
f 166 40 168
f 268 270 394
f 38 168 40
f 200 429 201
f 200 201 209
f 422 201 429
f 202 209 201
f 331 330 267
f 102 37 101
f 372 267 330
f 143 101 37
f 423 433 274
f 203 44 213
f 288 274 433
f 58 213 44
f 291 251 329
f 61 100 21
f 463 329 251
f 243 21 100
f 259 287 386
f 29 159 57
f 385 386 287
f 158 57 159
f 343 447 354
f 114 125 227
f 266 354 447
f 36 227 125
f 258 387 260
f 28 30 160
f 388 260 387
f 161 160 30
f 431 423 432
f 211 212 203
f 425 432 423
f 205 203 212
f 446 343 277
f 226 47 114
f 354 277 343
f 125 114 47
f 425 423 336
f 205 107 203
f 274 336 423
f 44 203 107
f 307 293 308
f 77 78 63
f 326 308 293
f 97 63 78
f 367 448 353
f 138 124 228
f 346 353 448
f 117 228 124
f 303 269 304
f 73 74 39
f 272 304 269
f 42 39 74
f 372 359 267
f 143 37 130
f 424 267 359
f 204 130 37
f 328 295 461
f 99 241 65
f 456 461 295
f 236 65 241
f 295 332 279
f 65 49 103
f 280 279 332
f 50 103 49
f 304 272 305
f 74 75 42
f 273 305 272
f 43 42 75
f 428 437 435
f 208 215 217
f 433 435 437
f 213 217 215
f 305 273 409
f 75 185 43
f 408 409 273
f 184 43 185
f 395 431 396
f 170 171 211
f 432 396 431
f 212 211 171
f 396 370 379
f 171 150 141
f 401 379 370
f 177 141 150
f 297 335 300
f 67 70 106
f 334 300 335
f 105 106 70
f 418 169 352
f 194 123 169
f 7 352 169
f 7 169 123
f 281 412 353
f 51 124 188
f 377 353 412
f 148 188 124
f 320 321 326
f 90 97 91
f 308 326 321
f 78 91 97
f 286 296 337
f 56 108 66
f 297 337 296
f 67 66 108
f 405 321 404
f 181 180 91
f 320 404 321
f 90 91 180
f 331 349 330
f 102 101 120
f 350 330 349
f 121 120 101
f 335 294 334
f 106 105 64
f 299 334 294
f 69 64 105
f 324 455 367
f 94 138 235
f 448 367 455
f 228 235 138
f 17 316 16
f 17 16 86
f 317 16 316
f 87 86 16
f 430 280 359
f 210 130 50
f 332 359 280
f 103 50 130
f 16 317 15
f 16 15 87
f 318 15 317
f 88 87 15
f 9 286 10
f 9 10 56
f 337 10 286
f 108 56 10
f 330 350 278
f 101 48 121
f 351 278 350
f 122 121 48
f 253 254 381
f 23 154 24
f 375 381 254
f 146 24 154
f 403 404 319
f 179 89 180
f 320 319 404
f 90 180 89
f 352 7 420
f 123 197 7
f 198 420 7
f 198 7 197
f 325 319 326
f 96 97 89
f 320 326 319
f 90 89 97
f 398 368 366
f 173 137 139
f 365 366 368
f 136 139 137
f 289 436 398
f 59 173 216
f 368 398 436
f 139 216 173
f 439 440 345
f 219 116 220
f 279 345 440
f 49 220 116
f 272 312 273
f 42 43 82
f 311 273 312
f 81 82 43
f 6 282 196
f 6 196 52
f 249 196 282
f 4 52 196
f 274 288 376
f 44 147 58
f 292 376 288
f 62 58 147
f 397 429 176
f 172 176 209
f 200 176 429
f 200 209 176
f 269 313 272
f 39 42 83
f 312 272 313
f 82 83 42
f 445 446 284
f 225 54 226
f 277 284 446
f 47 226 54
f 255 340 374
f 25 145 111
f 391 374 340
f 164 111 145
f 296 283 297
f 66 67 53
f 335 297 283
f 106 53 67
f 347 449 348
f 118 119 229
f 450 348 449
f 230 229 119
f 455 357 448
f 235 228 128
f 265 448 357
f 35 128 228
f 337 297 338
f 108 109 67
f 300 338 297
f 70 67 109
f 152 338 11
f 152 11 109
f 339 11 338
f 110 109 11
f 279 440 295
f 49 65 220
f 456 295 440
f 236 220 65
f 408 416 293
f 184 63 192
f 309 293 416
f 79 192 63
f 359 372 430
f 130 210 143
f 356 430 372
f 127 143 210
f 346 373 341
f 117 112 144
f 266 341 373
f 36 144 112
f 389 391 467
f 162 247 164
f 250 467 391
f 8 164 247
f 353 347 281
f 124 51 118
f 348 281 347
f 119 118 51
f 296 443 283
f 66 53 223
f 444 283 443
f 224 223 53
f 20 95 355
f 20 126 95
f 371 355 95
f 142 95 126
f 296 286 443
f 66 223 56
f 442 443 286
f 222 56 223
f 420 198 249
f 197 4 198
f 196 249 198
f 196 198 4
f 360 264 256
f 131 26 34
f 250 256 264
f 8 34 26
f 276 275 441
f 46 221 45
f 458 441 275
f 238 45 221
f 301 384 302
f 71 72 157
f 369 302 384
f 140 157 72
f 418 352 466
f 194 246 123
f 413 466 352
f 189 123 246
f 467 264 468
f 247 248 34
f 360 468 264
f 131 34 248
f 390 252 369
f 163 140 22
f 302 369 252
f 72 22 140
f 375 387 381
f 146 154 160
f 386 381 387
f 159 160 154
f 380 395 379
f 151 150 170
f 396 379 395
f 171 170 150
f 352 420 413
f 123 189 197
f 400 413 420
f 175 197 189
f 427 323 437
f 207 217 93
f 411 437 323
f 187 93 217
f 388 374 389
f 161 162 145
f 391 389 374
f 164 145 162
f 394 327 165
f 168 165 98
f 3 165 327
f 3 98 165
f 355 371 462
f 126 242 142
f 463 462 371
f 243 142 242
f 1 268 165
f 1 165 38
f 394 165 268
f 168 38 165
f 12 13 303
f 12 73 13
f 269 303 13
f 39 13 73
f 387 375 388
f 160 161 146
f 374 388 375
f 145 146 161
f 13 14 269
f 13 39 14
f 313 269 14
f 83 14 39
f 294 301 299
f 64 69 71
f 302 299 301
f 72 71 69
f 341 266 262
f 112 32 36
f 447 262 266
f 227 36 32
f 381 386 382
f 154 155 159
f 385 382 386
f 158 159 155
f 281 331 426
f 51 206 102
f 267 426 331
f 37 102 206
f 424 392 427
f 204 207 166
f 323 427 392
f 93 166 207
f 430 356 421
f 210 199 127
f 438 421 356
f 218 127 199
f 392 328 394
f 166 168 99
f 327 394 328
f 98 99 168
f 458 439 441
f 238 221 219
f 345 441 439
f 116 219 221
f 383 363 342
f 156 113 134
f 464 342 363
f 244 134 113
f 458 462 460
f 238 240 242
f 459 460 462
f 239 242 240
f 435 431 365
f 215 136 211
f 395 365 431
f 170 211 136
f 415 464 399
f 191 174 244
f 363 399 464
f 134 244 174
f 263 429 370
f 33 141 209
f 397 370 429
f 172 209 141
f 458 275 462
f 238 242 45
f 355 462 275
f 126 45 242
f 317 404 318
f 87 88 180
f 403 318 404
f 179 180 88
f 316 405 317
f 86 87 181
f 404 317 405
f 180 181 87
f 315 406 316
f 85 86 182
f 405 316 406
f 181 182 86
f 314 407 315
f 84 85 183
f 406 315 407
f 182 183 85
f 419 407 422
f 195 202 183
f 314 422 407
f 84 183 202
f 367 402 324
f 138 94 178
f 362 324 402
f 133 178 94
f 409 408 307
f 185 77 184
f 293 307 408
f 63 184 77
f 409 307 410
f 185 186 77
f 292 410 307
f 62 77 186
f 411 410 288
f 187 58 186
f 292 288 410
f 62 186 58
f 437 411 433
f 217 213 187
f 288 433 411
f 58 187 213
f 435 417 428
f 215 208 193
f 412 428 417
f 188 193 208
f 265 369 373
f 35 144 140
f 384 373 369
f 157 140 144
f 458 460 439
f 238 219 240
f 310 439 460
f 80 240 219
f 353 377 367
f 124 138 148
f 402 367 377
f 178 148 138
f 5 2 276
f 5 46 2
f 275 276 2
f 45 2 46
f 429 263 422
f 209 202 33
f 419 422 263
f 195 33 202
f 328 359 295
f 99 65 130
f 332 295 359
f 103 130 65
f 368 436 417
f 139 193 216
f 434 417 436
f 214 216 193
f 456 440 290
f 236 60 220
f 393 290 440
f 167 220 60
f 329 463 327
f 100 98 243
f 371 327 463
f 142 243 98
f 327 371 3
f 98 3 142
f 95 3 371
f 95 142 3
f 461 456 306
f 241 76 236
f 290 306 456
f 60 236 76
f 449 340 450
f 229 230 111
f 255 450 340
f 25 111 230
f 262 447 256
f 32 26 227
f 360 256 447
f 131 227 26
f 450 255 451
f 230 231 25
f 254 451 255
f 24 25 231
f 451 254 452
f 231 232 24
f 253 452 254
f 23 24 232
f 452 253 453
f 232 233 23
f 257 453 253
f 27 23 233
f 257 342 453
f 27 233 113
f 454 453 342
f 234 113 233
f 414 465 415
f 190 191 245
f 464 415 465
f 244 245 191
f 442 414 287
f 222 57 190
f 415 287 414
f 191 190 57
f 442 287 443
f 222 223 57
f 259 443 287
f 29 57 223
f 443 259 444
f 223 224 29
f 258 444 259
f 28 29 224
f 445 444 260
f 225 30 224
f 258 260 444
f 28 224 30
f 260 261 445
f 30 225 31
f 446 445 261
f 226 31 225
f 261 468 446
f 31 226 248
f 343 446 468
f 114 248 226
f 251 310 459
f 21 239 80
f 460 459 310
f 240 80 239
f 291 306 393
f 61 167 76
f 290 393 306
f 60 76 167
f 461 306 329
f 241 100 76
f 291 329 306
f 61 76 100
f 377 434 402
f 148 178 214
f 436 402 434
f 216 214 178
f 251 291 310
f 21 80 61
f 393 310 291
f 167 61 80
f 412 417 377
f 188 148 193
f 434 377 417
f 214 193 148
f 342 464 454
f 113 234 244
f 465 454 464
f 245 244 234
f 454 465 358
f 234 129 245
f 466 358 465
f 246 245 129
f 413 344 466
f 189 246 115
f 358 466 344
f 129 115 246
f 438 344 400
f 218 175 115
f 413 400 344
f 189 115 175
f 364 441 361
f 135 132 221
f 345 361 441
f 116 221 132
f 457 421 400
f 237 175 199
f 438 400 421
f 218 199 175
f 457 364 421
f 237 199 135
f 361 421 364
f 132 135 199
f 362 402 289
f 133 59 178
f 436 289 402
f 216 178 59
f 354 266 384
f 125 157 36
f 373 384 266
f 144 36 157
f 256 250 340
f 26 111 8
f 391 340 250
f 164 8 111
f 262 256 449
f 32 229 26
f 340 449 256
f 111 26 229
f 15 318 14
f 15 14 88
f 313 14 318
f 83 88 14
f 318 403 313
f 88 83 179
f 312 313 403
f 82 179 83
f 403 319 312
f 179 82 89
f 311 312 319
f 81 89 82
f 319 325 311
f 89 81 96
f 416 311 325
f 192 96 81
